<svg xmlns="http://www.w3.org/2000/svg" viewBox="0 0 24 24">
  <path d="M12 2.163c3.204 0 3.584.012 4.849.07 1.366.062 2.633.332 3.608 1.307.975.975 1.245 2.242 1.307 3.608.058 1.265.07 1.645.07 4.849s-.012 3.584-.07 4.849c-.062 1.366-.332 2.633-1.307 3.608-.975.975-2.242 1.245-3.608 1.307-1.265.058-1.645.07-4.849.07s-3.584-.012-4.849-.07c-1.366-.062-2.633-.332-3.608-1.307-.975-.975-1.245-2.242-1.307-3.608C2.175 15.647 2.163 15.267 2.163 12s.012-3.584.07-4.849c.062-1.366.332-2.633 1.307-3.608.975-.975 2.242-1.245 3.608-1.307C8.416 2.175 8.796 2.163 12 2.163m0-2.163c-3.259 0-3.67.013-4.947.072-1.319.06-2.226.277-3.038.599a5.919 5.919 0 0 0-2.146 1.416A5.919 5.919 0 0 0 .231 4.941c-.322.812-.539 1.719-.599 3.038C-.022 9.257-.035 9.668-.035 12s.013 2.743.072 4.947c.06 1.319.277 2.226.599 3.038.257.604.635 1.155 1.146 1.666.51.51 1.061.888 1.666 1.146.812.322 1.719.539 3.038.599 1.277.059 1.688.072 4.947.072s3.67-.013 4.947-.072c1.319-.06 2.226-.277 3.038-.599a5.919 5.919 0 0 0 3.038-3.038c.322-.812.539-1.719.599-3.038.059-1.277.072-1.688.072-4.947s-.013-3.67-.072-4.947c-.06-1.319-.277-2.226-.599-3.038a5.919 5.919 0 0 0-3.038-3.038c-.812-.322-1.719-.539-3.038-.599C15.67.013 15.259 0 12 0z"/>
  <path d="M12 5.838a6.162 6.162 0 1 0 0 12.324 6.162 6.162 0 1 0 0-12.324zm0 10.161a3.999 3.999 0 1 1 0-7.998 3.999 3.999 0 1 1 0 7.998zm6.406-11.845a1.44 1.44 0 1 0 0 2.881 1.44 1.44 0 1 0 0-2.881z"/>
</svg>
