<svg xmlns="http://www.w3.org/2000/svg" viewBox="0 0 24 24">
  <path d="M23.643 4.937c-.835.37-1.732.62-2.675.733a4.657 4.657 0 0 0 2.036-2.572 9.292 9.292 0 0 1-2.93 1.122A4.605 4.605 0 0 0 16.616 3c-2.548 0-4.613 2.066-4.613 4.613 0 .361.04.712.12 1.048A13.073 13.073 0 0 1 1.675 3.15a4.615 4.615 0 0 0-.625 2.318c0 1.6.815 3.016 2.055 3.847a4.586 4.586 0 0 1-2.09-.578v.058c0 2.23 1.585 4.09 3.688 4.511a4.662 4.662 0 0 1-2.085.08 4.617 4.617 0 0 0 4.312 3.206A9.26 9.26 0 0 1 .958 19.06a13.04 13.04 0 0 0 7.064 2.07c8.475 0 13.115-7.026 13.115-13.115 0-.2-.005-.399-.014-.597a9.348 9.348 0 0 0 2.3-2.373z"/>
</svg>
